<svg width="30" height="31" fill="none" xmlns="http://www.w3.org/2000/svg"><path d="M2.552.999A2.566 2.566 0 000 3.55v24.9a2.563 2.563 0 002.552 2.549h24.896A2.563 2.563 0 0030 28.448V3.552A2.566 2.566 0 0027.448.999H2.552zm0 1.67h24.896c.504 0 .885.377.885.882V28.45a.864.864 0 01-.885.882H2.552a.864.864 0 01-.885-.882V3.55c0-.504.381-.882.885-.882z" fill="#2F80ED"/><path d="M14.167 5.999a.833.833 0 00-.833.833v5a.833.833 0 00.833.833h10a.834.834 0 00.833-.833v-5a.834.834 0 00-.833-.833h-10zM15 7.665h8.334v3.333H15V7.665zm-.833 6.667a.834.834 0 00-.833.833v5a.833.833 0 00.833.834h10a.834.834 0 00.833-.834v-5a.834.834 0 00-.833-.833h-10zM15 15.998h8.334v3.334H15v-3.334z" fill="#2F80ED"/><path fill-rule="evenodd" clip-rule="evenodd" d="M5 7.665v1.667h5V7.665H5zm0 8.333v1.667h5V16H5zm0 8.333v1.667h19.83v-1.667H5z" fill="#2F80ED"/></svg>