<svg width="30" height="30" fill="none" xmlns="http://www.w3.org/2000/svg"><path d="M27.44 20.36l-.04-.04-3-1.88c-.84-.6-1.76-.76-2.72-.48-1.12.32-2.08 1.32-2.56 2.6-.28.8-.76 1.08-1.6.96-3.08-.4-8.32-5.92-8.64-9.08-.08-.88.2-1.36 1-1.6C11 10.4 11.8 9.6 12.12 8.6c.28-1 .08-2.04-.6-3l-1.88-3-.04-.04C8.68 1.32 7.72.68 6.56.6c-1.44-.12-3 .68-4.72 2.4-4.12 4.12-.6 13.88 5.32 19.8 4.12 4.12 10.12 7.12 14.8 7.12 1.92 0 3.6-.52 4.84-1.64.08-.04.16-.08.2-.16 1.72-1.72 2.52-3.28 2.4-4.72-.08-1.16-.72-2.16-1.96-3.04zm-1.48 6.48c-.04.04-.12.08-.16.12-3.16 3.16-11.68.56-17.56-5.32C2.4 15.8-.16 7.28 3 4.12c1.36-1.36 2.52-2.04 3.48-1.96.64.04 1.24.48 1.84 1.28l1.88 3 .04.04c.4.52.52 1.12.36 1.64-.16.52-.6.96-1.28 1.2-1.44.48-2.2 1.68-2.04 3.28.4 3.92 6.2 10 10.04 10.52.16.04.36.04.52.04 1.32 0 2.32-.72 2.8-2 .32-.8.88-1.44 1.52-1.64.44-.12.88-.04 1.32.28l.04.04 3 1.88c.84.6 1.24 1.2 1.28 1.84.08.84-.56 1.96-1.84 3.28zM15.44.12c-.44 0-.8.36-.8.8 0 .44.36.8.8.8 7.12 0 12.92 5.8 12.92 12.92 0 .44.36.8.8.8.44 0 .8-.36.8-.8C29.96 6.6 23.44.12 15.44.12z" fill="#2F80ED"/><path d="M15.44 4.96c5.32 0 9.68 4.32 9.68 9.68 0 .44.36.8.8.8.44 0 .8-.36.8-.8 0-6.2-5.04-11.28-11.28-11.28-.44 0-.8.36-.8.8 0 .44.36.8.8.8z" fill="#2F80ED"/><path d="M15.44 8.28c3.52 0 6.36 2.84 6.36 6.32 0 .44.36.8.8.8.44 0 .8-.36.8-.8 0-4.4-3.56-7.96-7.96-7.96-.44 0-.8.36-.8.8 0 .48.36.84.8.84z" fill="#2F80ED"/></svg>