<svg width="40" height="40" fill="none" xmlns="http://www.w3.org/2000/svg"><path d="M25.56 22.32l4.08-3.52c.44-.4.6-1 .44-1.56-.2-.56-.68-.96-1.28-1l-5.32-.44-2.08-4.96c-.24-.56-.76-.88-1.36-.88-.6 0-1.12.36-1.36.88L16.6 15.8l-5.32.44c-.6.04-1.08.44-1.28 1-.2.56 0 1.16.44 1.56l4.08 3.48-1.24 5.2c-.12.56.08 1.16.56 1.52.48.36 1.12.36 1.6.08l4.56-2.8 4.56 2.8c.24.16.48.2.76.2.32 0 .6-.08.84-.28.48-.36.68-.96.56-1.52l-1.16-5.16zm-1.12-1.16c-.4.36-.6.92-.48 1.44l1.16 4.96-4.32-2.68c-.24-.16-.48-.2-.76-.2s-.52.08-.76.2l-4.36 2.64 1.16-4.96c.12-.52-.04-1.08-.48-1.44l-3.88-3.32 5.08-.4c.56-.04 1-.4 1.24-.88L20 11.8l2 4.72c.2.52.68.84 1.24.88l5.08.4-3.88 3.36zm-4.4-14.84c.44 0 .8-.36.8-.8V1.8c0-.44-.36-.8-.8-.8-.44 0-.8.36-.8.8v3.72c0 .44.36.8.8.8zM9.2 10.28c.16.16.36.24.56.24.2 0 .4-.08.56-.24.32-.32.32-.84 0-1.12l-2.6-2.6c-.32-.32-.84-.32-1.12 0-.32.32-.32.84 0 1.12l2.6 2.6zm-3.68 8.88H1.8c-.44 0-.8.36-.8.8 0 .44.36.8.8.8h3.72c.44 0 .8-.36.8-.8 0-.44-.36-.8-.8-.8zm3.64 10.48l-2.6 2.6c-.32.32-.32.84 0 1.12.16.16.36.24.56.24.2 0 .4-.08.56-.24l2.6-2.6c.32-.32.32-.84 0-1.12-.32-.32-.84-.32-1.12 0zm10.8 4.04c-.44 0-.8.36-.8.8v3.72c0 .44.36.8.8.8.44 0 .8-.36.8-.8v-3.72c0-.44-.36-.8-.8-.8zm10.84-3.96c-.32-.32-.84-.32-1.12 0-.32.32-.32.84 0 1.12l2.6 2.6c.16.16.36.24.56.24.2 0 .4-.08.56-.24.32-.32.32-.84 0-1.12l-2.6-2.6zm7.4-10.48h-3.72c-.44 0-.8.36-.8.8 0 .44.36.8.8.8h3.72c.44 0 .8-.36.8-.8 0-.44-.36-.8-.8-.8zm-7.92-8.64c.2 0 .4-.08.56-.24l2.6-2.6c.32-.32.32-.84 0-1.12-.32-.32-.84-.32-1.12 0l-2.6 2.56c-.32.32-.32.84 0 1.12.16.2.36.28.56.28z" fill="#2F80ED"/></svg>