<svg width="100" height="60" fill="none" xmlns="http://www.w3.org/2000/svg"><path fill-rule="evenodd" clip-rule="evenodd" d="M59.4 33.746c.03-2.09.002-4.2.002-6.292 0-1.524-.358-4.172 2.157-4.07 2.376.096 2.053 2.617 2.053 4.14 0 2.079-.021 4.17.002 6.248l2.357-.004c.02-2.078.002-4.166.002-6.245 0-1.514-.331-4.114 2.139-4.142 2.458-.028 2.074 2.608 2.074 4.212 0 2.053-.023 4.12.003 6.178l2.465-.006c.023-1.867.003-3.748.003-5.617 0-1.838.142-3.512-.7-4.913-1.305-2.166-5.247-2.977-7.138.187-.274-.244-.457-.824-1.175-1.327-1.71-1.195-4.23-.749-6.71-.749l.002 12.431 2.464-.03zm37.968-5.181c-.105 1.177-.486 2.164-1.107 2.732-1.725 1.576-5.75 1.182-5.183-4.605.207-2.122 1.558-4.06 4.019-3.367 1.927.542 2.489 2.826 2.272 5.24zm-8.83-.14c.235 3.414 2.646 5.987 6.326 5.63 3.796-.368 5.207-3.651 5.032-7.091-.4-7.858-12-7.817-11.359 1.462zm-41.379-5.163c2.416-.453 3.597 1.59 3.718 3.772.112 2.033-.237 4.618-2.617 5.01-2.42.399-3.627-1.505-3.725-3.755-.109-2.466.445-4.617 2.624-5.027zm6.238 5.025c.526-6.466-5.895-8.919-9.572-5.508-.957.888-1.654 2.373-1.803 4.212-.305 3.776 1.688 6.713 4.995 7.06 2.15.227 3.939-.634 4.96-1.878.373-.455.618-.86.867-1.422.328-.741.479-1.558.553-2.464zm-22.36-4.857c3.205-.234 5.134.745 5.26 3.885.131 3.272-1.37 4.572-4.514 4.572l-.482.002-.263-.012V23.43zm-2.413 10.33c2.053.124 5.557.203 7.317-.799 1.66-.944 2.88-2.621 2.877-5.299-.004-4.165-2.78-5.89-6.207-6.052-.987-.047-3.04-.122-3.989-.005l.002 12.156zm50.483-10.274h6.049c.024-.422.083-1.589-.04-1.9h-7.629c-.303-.002-.797-.104-.797.174v11.99l8.649.016.039-1.95h-6.251l-.004-3.382 5.735-.008v-1.87l-5.745-.005-.006-3.065z" fill="#000"/><path d="M1.297.034H59.39v18.654h-2.443V2.494H2.52V57.47h54.428V36.655h2.443V59.93H.076V.034h1.221z" fill="#FFCF10"/></svg>