<svg width="40" height="40" fill="none" xmlns="http://www.w3.org/2000/svg"><circle cx="20" cy="20" r="19" stroke="#2F80ED" stroke-width="2"/><path d="M17.973 24.125c0-.57.039-1.05.117-1.441.078-.391.203-.739.375-1.043.18-.305.426-.606.738-.903.32-.297.723-.633 1.207-1.008.36-.273.668-.574.926-.902.258-.328.457-.672.598-1.031.14-.367.21-.746.21-1.137 0-.625-.175-1.113-.527-1.465-.344-.36-.828-.539-1.453-.539-.523 0-.973.145-1.348.434-.367.281-.554.719-.562 1.312h-3.668l-.024-.07c-.015-.992.211-1.832.68-2.52.469-.695 1.125-1.222 1.969-1.582.852-.359 1.832-.539 2.941-.539 1.805 0 3.215.438 4.23 1.313 1.016.875 1.524 2.059 1.524 3.55a4.46 4.46 0 01-.41 1.91 6.39 6.39 0 01-1.09 1.63c-.46.5-.98.98-1.558 1.441-.313.235-.547.469-.703.703a2.261 2.261 0 00-.329.809 6.056 6.056 0 00-.082 1.078h-3.761zm0 4.875v-3.176h3.738V29h-3.738z" fill="#2F80ED"/></svg>