<svg width="26" height="32" fill="none" xmlns="http://www.w3.org/2000/svg"><path d="M13 10.4a.8.8 0 00-.8.8v8a.8.8 0 001.6 0v-8a.8.8 0 00-.8-.8z" fill="#2F80ED"/><path d="M22.585 10.746l2.181-2.18a.8.8 0 00-1.13-1.13l-2.182 2.178A12.744 12.744 0 0013.8 6.44V1.6h4a.8.8 0 000-1.6H8.2a.8.8 0 000 1.6h4v4.84C5.515 6.856.2 12.411.2 19.2.2 26.258 5.942 32 13 32c7.058 0 12.8-5.742 12.8-12.8 0-3.242-1.22-6.197-3.215-8.454zM13 30.4c-6.176 0-11.2-5.026-11.2-11.2C1.8 13.026 6.824 8 13 8c6.176 0 11.2 5.026 11.2 11.2 0 6.174-5.024 11.2-11.2 11.2z" fill="#2F80ED"/></svg>